<?xml version="1.0" standalone="no"?>
<!DOCTYPE svg PUBLIC "-//W3C//DTD SVG 20010904//EN"
 "http://www.w3.org/TR/2001/REC-SVG-20010904/DTD/svg10.dtd">
<svg version="1.0" xmlns="http://www.w3.org/2000/svg"
 width="72.000000pt" height="72.000000pt" viewBox="0 0 72.000000 72.000000"
 preserveAspectRatio="xMidYMid meet">
<metadata>
Created by potrace 1.11, written by Peter Selinger 2001-2013
</metadata>
<g transform="translate(0.000000,72.000000) scale(0.100000,-0.100000)"
fill="#000000" stroke="none">
<path d="M0 360 l0 -360 360 0 360 0 0 360 0 360 -360 0 -360 0 0 -360z m649
278 c0 -7 -44 -69 -98 -138 l-98 -125 99 -131 c54 -72 98 -140 98 -152 l0 -22
-290 0 c-341 0 -324 -9 -229 124 l61 86 94 0 94 0 0 -80 c0 -79 0 -80 25 -80
l25 0 0 251 0 250 -37 -3 c-36 -3 -41 -9 -175 -202 -75 -109 -140 -201 -143
-204 -3 -3 -5 94 -5 216 l0 222 290 0 c226 0 290 -3 289 -12z m-272 -305 c-3
-2 -37 -3 -76 -1 l-71 3 73 109 72 109 3 -108 c1 -59 1 -109 -1 -112z m271
-45 l-3 -81 -63 82 c-40 53 -60 87 -55 95 5 7 33 45 63 85 l55 71 3 -85 c1
-47 1 -122 0 -167z"/>
</g>
</svg>
